<?xml version="1.0" standalone="no"?>
<!DOCTYPE svg PUBLIC "-//W3C//DTD SVG 20010904//EN"
 "http://www.w3.org/TR/2001/REC-SVG-20010904/DTD/svg10.dtd">
<svg version="1.0" xmlns="http://www.w3.org/2000/svg"
 width="512.000000pt" height="512.000000pt" viewBox="0 0 512.000000 512.000000"
 preserveAspectRatio="xMidYMid meet">
<metadata>
Created by potrace 1.11, written by Peter Selinger 2001-2013
</metadata>
<g transform="translate(0.000000,512.000000) scale(0.100000,-0.100000)"
fill="#000000" stroke="none">
<path d="M1087 4895 c-98 -25 -191 -116 -222 -217 -10 -35 -13 -134 -12 -447
1 -220 -1 -401 -5 -401 -4 0 -5 -7 -2 -15 9 -23 10 -305 2 -305 -4 0 -5 -7 -2
-15 9 -22 10 -1585 2 -1585 -4 0 -5 -7 -2 -15 10 -24 10 -305 1 -305 -5 0 -5
-5 -2 -11 10 -14 8 -1086 -1 -1100 -4 -8 -3 -9 4 -5 7 4 12 1 13 -6 1 -13 3
-29 10 -58 2 -8 9 -20 14 -27 6 -7 24 -30 40 -52 17 -21 51 -52 77 -68 25 -15
44 -31 42 -34 -2 -3 8 -4 21 -1 15 2 25 0 25 -8 0 -7 8 -9 19 -5 11 3 23 1 26
-6 6 -8 9 -8 15 1 10 16 33 2 26 -16 -3 -7 -1 -16 5 -19 5 -4 9 -3 8 2 -5 28
4 33 62 33 45 0 58 -3 53 -12 -6 -10 -5 -10 8 0 11 9 103 12 387 12 205 0 376
2 381 5 5 3 11 1 15 -5 4 -7 12 -7 26 0 18 10 24 6 19 -15 -1 -5 4 -4 11 2 18
18 123 18 113 1 -6 -10 -5 -10 8 0 11 9 103 12 387 12 205 0 376 2 381 5 5 3
11 1 15 -5 4 -7 12 -7 26 0 18 10 24 6 19 -15 -1 -5 4 -4 11 2 18 18 123 18
113 0 -6 -9 -4 -9 7 0 19 19 729 19 748 0 10 -10 11 -9 6 4 -5 12 0 16 17 15
13 -1 48 11 78 26 62 32 64 32 54 16 -4 -8 -3 -10 2 -5 5 5 9 12 9 15 1 14 39
51 47 46 5 -3 7 0 6 8 -2 7 2 12 8 11 7 -1 11 5 10 15 0 9 4 17 11 17 6 0 15
4 20 9 5 6 2 6 -6 1 -11 -6 -13 -4 -6 11 4 10 13 38 19 62 7 23 16 39 21 35 4
-4 5 -2 0 6 -4 7 -7 79 -6 160 1 80 2 151 2 156 0 6 0 183 0 395 0 212 0 394
-1 405 0 11 1 49 1 85 1 36 1 72 0 80 0 8 -1 80 0 160 0 80 0 150 0 155 0 6 0
183 0 395 0 212 0 394 -1 405 0 11 1 49 1 85 1 36 1 72 0 80 0 8 -1 80 0 160
0 80 0 150 0 155 0 6 0 183 0 395 0 212 0 394 -1 405 0 11 1 49 1 85 1 36 1
72 0 80 0 8 -1 77 -2 153 0 77 -7 159 -14 187 -7 28 -10 50 -7 50 4 0 -1 5
-10 11 -10 5 -18 16 -18 23 0 15 -85 97 -120 116 -68 37 -84 37 -1540 37
-1077 0 -1437 -3 -1473 -12z"/>
<path d="M953 265 c0 -8 4 -12 9 -9 5 3 6 10 3 15 -9 13 -12 11 -12 -6z"/>
<path d="M1015 220 c3 -5 8 -10 11 -10 2 0 4 5 4 10 0 6 -5 10 -11 10 -5 0 -7
-4 -4 -10z"/>
<path d="M947 199 c7 -7 15 -10 18 -7 3 3 -2 9 -12 12 -14 6 -15 5 -6 -5z"/>
<path d="M1713 185 c0 -8 4 -12 9 -9 5 3 6 10 3 15 -9 13 -12 11 -12 -6z"/>
<path d="M2673 185 c0 -8 4 -12 9 -9 5 3 6 10 3 15 -9 13 -12 11 -12 -6z"/>
<path d="M3633 185 c0 -8 4 -12 9 -9 5 3 6 10 3 15 -9 13 -12 11 -12 -6z"/>
<path d="M3793 185 c0 -8 4 -12 9 -9 5 3 6 10 3 15 -9 13 -12 11 -12 -6z"/>
<path d="M1495 180 c3 -5 8 -10 11 -10 2 0 4 5 4 10 0 6 -5 10 -11 10 -5 0 -7
-4 -4 -10z"/>
<path d="M1575 180 c3 -5 8 -10 11 -10 2 0 4 5 4 10 0 6 -5 10 -11 10 -5 0 -7
-4 -4 -10z"/>
<path d="M1906 178 c3 -5 10 -6 15 -3 13 9 11 12 -6 12 -8 0 -12 -4 -9 -9z"/>
<path d="M1975 180 c3 -5 8 -10 11 -10 2 0 4 5 4 10 0 6 -5 10 -11 10 -5 0 -7
-4 -4 -10z"/>
<path d="M2055 180 c3 -5 8 -10 11 -10 2 0 4 5 4 10 0 6 -5 10 -11 10 -5 0 -7
-4 -4 -10z"/>
<path d="M2455 180 c3 -5 8 -10 11 -10 2 0 4 5 4 10 0 6 -5 10 -11 10 -5 0 -7
-4 -4 -10z"/>
<path d="M2535 180 c3 -5 8 -10 11 -10 2 0 4 5 4 10 0 6 -5 10 -11 10 -5 0 -7
-4 -4 -10z"/>
<path d="M2866 178 c3 -5 10 -6 15 -3 13 9 11 12 -6 12 -8 0 -12 -4 -9 -9z"/>
<path d="M2935 180 c3 -5 8 -10 11 -10 2 0 4 5 4 10 0 6 -5 10 -11 10 -5 0 -7
-4 -4 -10z"/>
<path d="M3015 180 c3 -5 8 -10 11 -10 2 0 4 5 4 10 0 6 -5 10 -11 10 -5 0 -7
-4 -4 -10z"/>
<path d="M3415 180 c3 -5 8 -10 11 -10 2 0 4 5 4 10 0 6 -5 10 -11 10 -5 0 -7
-4 -4 -10z"/>
<path d="M3495 180 c3 -5 8 -10 11 -10 2 0 4 5 4 10 0 6 -5 10 -11 10 -5 0 -7
-4 -4 -10z"/>
<path d="M3895 180 c3 -5 8 -10 11 -10 2 0 4 5 4 10 0 6 -5 10 -11 10 -5 0 -7
-4 -4 -10z"/>
<path d="M3793 125 c0 -8 4 -12 9 -9 5 3 6 10 3 15 -9 13 -12 11 -12 -6z"/>
<path d="M1260 126 c0 -2 8 -10 18 -17 15 -13 16 -12 3 4 -13 16 -21 21 -21
13z"/>
</g>
</svg>
